<svg width="256" height="256" viewBox="0 0 256 256" fill="none" xmlns="http://www.w3.org/2000/svg">
<path d="M70.9594 111.952L62.8254 90.553C61.9052 88.1117 59.7513 86.346 57.1756 85.9242L50.0103 84.7483C48.2969 84.4665 46.7944 85.9074 47.0015 87.6301L50.6766 117.702C58.6744 120.491 65.3003 118.061 70.9594 111.952Z" fill="#C7D2E3"/>
<path d="M137.428 160.732H150.797C152.206 160.732 153.348 159.59 153.348 158.181V151.898C153.348 150.489 152.206 149.347 150.797 149.347H145.437L137.428 160.732Z" fill="#ADC4E5"/>
<path d="M152.214 142.148C180.252 142.135 206.419 136.818 211.847 122.267C200.432 83.9933 41.8631 111.776 43.8845 122.267C43.8845 127.222 79.4704 136.045 117.365 140.06" fill="#5786CC"/>
<path d="M158.955 132.197L135.983 166.129C134.432 168.417 130.981 169.996 126.99 170.248L115.183 170.989C112.958 171.129 111.109 169.946 111.409 168.576L119.28 130.89C137.271 128.15 149.617 129.171 158.955 132.197Z" fill="#C7D2E3"/>
<path d="M211.847 122.267H196.647C192.458 118.235 190.525 112.808 189.875 106.583C202.207 108.739 209.954 113.724 211.847 122.267Z" fill="#C7D2E3"/>
<path d="M173.025 123.825C176.128 123.825 178.643 121.31 178.643 118.207C178.643 115.104 176.128 112.589 173.025 112.589C169.922 112.589 167.407 115.104 167.407 118.207C167.407 121.31 169.922 123.825 173.025 123.825Z" fill="#C7D2E3"/>
<path d="M152.195 123.825C155.298 123.825 157.813 121.31 157.813 118.207C157.813 115.104 155.298 112.589 152.195 112.589C149.092 112.589 146.577 115.104 146.577 118.207C146.577 121.31 149.092 123.825 152.195 123.825Z" fill="#C7D2E3"/>
<path d="M131.347 123.825C134.45 123.825 136.965 121.31 136.965 118.207C136.965 115.104 134.45 112.589 131.347 112.589C128.244 112.589 125.729 115.104 125.729 118.207C125.729 121.31 128.244 123.825 131.347 123.825Z" fill="#C7D2E3"/>
<path d="M67.6277 120.69L60.1806 131.69C59.6785 132.431 58.5586 132.945 57.2652 133.025L53.4371 133.266C52.7166 133.311 52.1156 132.928 52.2127 132.484L54.7641 120.266C60.5968 119.377 64.6003 119.71 67.6277 120.69Z" fill="#C7D2E3"/>
</svg>
