<svg width="256" height="256" viewBox="0 0 256 256" fill="none" xmlns="http://www.w3.org/2000/svg">
<path d="M80.4131 173C61.6323 173 46.351 157.721 46.351 138.94C46.351 120.158 61.6323 104.878 80.4131 104.878C99.1938 104.878 114.475 120.159 114.475 138.94C114.475 157.721 99.1956 173 80.4131 173ZM80.4131 110.25C64.5937 110.25 51.7249 123.121 51.7249 138.938C51.7249 154.756 64.5955 167.626 80.4131 167.626C96.2306 167.626 109.101 154.756 109.101 138.938C109.101 123.121 96.2324 110.25 80.4131 110.25Z" fill="#2A466F"/>
<path d="M175.3 173C156.518 173 141.236 157.719 141.236 138.938C141.236 120.156 156.518 104.876 175.3 104.876C194.081 104.876 209.362 120.157 209.362 138.94C209.362 157.721 194.081 173 175.3 173ZM175.3 110.25C159.481 110.25 146.61 123.121 146.61 138.938C146.61 154.756 159.481 167.626 175.3 167.626C191.118 167.626 203.988 154.756 203.988 138.938C203.988 123.121 191.118 110.25 175.3 110.25Z" fill="#2A466F"/>
<path d="M177.629 137.6L154.062 96.6712L160.131 86.8091C160.642 85.9795 160.664 84.9399 160.189 84.0904C159.713 83.2409 158.816 82.7139 157.843 82.7139H142.587C141.104 82.7139 139.9 83.9165 139.9 85.4017C139.9 86.887 141.102 88.0896 142.587 88.0896H153.035L149.434 93.9417H104.937L103.941 92.1196H106.174C107.66 92.1196 108.862 90.917 108.862 89.4317C108.862 87.9465 107.66 86.7439 106.174 86.7439H85.8813C84.3961 86.7439 83.1934 87.9465 83.1934 89.4317C83.1934 90.917 84.3961 92.1196 85.8813 92.1196H97.8155L100.19 96.463L78.0459 137.667C77.5985 138.5 77.6221 139.505 78.1057 140.317C78.5911 141.128 79.4659 141.624 80.4114 141.624H123.781V145.461H119.559C118.074 145.461 116.872 146.663 116.872 148.148C116.872 149.634 118.074 150.836 119.559 150.836H131.361C132.845 150.836 134.049 149.634 134.049 148.148C134.049 146.663 132.847 145.461 131.361 145.461H129.155V139.657L150.932 102.002L172.973 140.279C173.469 141.143 174.375 141.626 175.302 141.626C175.757 141.626 176.218 141.51 176.64 141.267C177.928 140.529 178.368 138.886 177.629 137.6ZM103.267 102.089L121.939 136.252H84.9068L103.267 102.089ZM126.534 133.457L107.873 99.3138H146.279L126.534 133.457Z" fill="#5786CC"/>
</svg>
