<svg width="256" height="256" viewBox="0 0 256 256" fill="none" xmlns="http://www.w3.org/2000/svg">
<path d="M138.343 140.886C122.34 141.684 107.38 148.216 93.0243 158.08C91.2517 159.297 88.8741 157.9 89.0579 155.756C92.5897 114.321 108.459 84.3282 131.341 60.8438L138.343 140.886Z" fill="#90B2E4"/>
<path d="M129.97 41.9612L133.965 74.7127L137.679 107.487C138.879 118.416 140.566 129.3 141.113 140.287C141.693 151.269 142.053 162.27 141.465 173.356C141.458 173.513 141.324 173.633 141.167 173.624C141.037 173.616 140.933 173.524 140.904 173.404C138.401 162.59 136.844 151.692 135.51 140.775C134.141 129.861 133.912 118.848 133.196 107.878L131.163 74.9558L129.411 42.011C129.401 41.8559 129.522 41.7238 129.677 41.7142C129.825 41.7066 129.953 41.8157 129.97 41.9612Z" fill="#ADC4E5"/>
<path d="M162.915 156.462L139.17 150.329C136.825 163.566 138.278 175.824 142.788 187.29L161.182 186.84L166.209 161.711C166.676 159.363 165.231 157.06 162.915 156.462Z" fill="#ADC4E5"/>
<path d="M142.788 187.288L139.17 150.327L117.259 160.304C115.134 161.271 114.1 163.7 114.876 165.902L119.328 178.561L142.788 187.288Z" fill="#90B2E4"/>
<path d="M127.349 176.765C98.4608 164.464 71.3909 166.227 45.3623 176.045C44.2348 176.47 43.4902 177.563 43.4902 178.767V181.962C43.4902 183.982 45.4983 185.352 47.3991 184.667C72.8017 175.519 99.2131 174.159 127.347 186.139C158.42 198.019 186.187 198.375 210.567 186.937C211.582 186.461 212.223 185.425 212.223 184.305V181.279C212.223 179.207 210.106 177.804 208.205 178.629C184.399 188.965 157.423 188.262 127.349 176.765Z" fill="#5786CC"/>
<path d="M127.349 195.477C98.4608 183.176 71.3909 184.939 45.3623 194.757C44.2348 195.182 43.4902 196.275 43.4902 197.479V200.674C43.4902 202.694 45.4983 204.064 47.3991 203.379C72.8017 194.231 99.2131 192.871 127.347 204.851C158.42 216.731 186.187 217.087 210.567 205.649C211.582 205.173 212.223 204.137 212.223 203.017V199.991C212.223 197.919 210.106 196.516 208.205 197.341C184.399 207.678 157.423 206.974 127.349 195.477Z" fill="#5786CC"/>
</svg>
