<svg width="256" height="256" viewBox="0 0 256 256" fill="none" xmlns="http://www.w3.org/2000/svg">
<path d="M182.392 82.7217H54.2765C51.0312 82.7217 48.4003 85.3526 48.4003 88.5979V154.132C48.4003 156.745 50.5191 158.862 53.1306 158.862H60.7584C60.9209 149.047 68.9177 141.135 78.7739 141.135C88.63 141.135 96.6269 149.047 96.7893 158.864H159.925C160.088 149.047 168.085 141.135 177.941 141.135C187.797 141.135 195.794 149.047 195.956 158.864H197.432H202.391C204.974 158.864 207.066 156.766 207.068 154.185C207.094 109.963 206.635 82.7217 182.392 82.7217Z" fill="#5786CC"/>
<path d="M206.988 136.771C198.075 128.583 187.954 123.419 175.882 123.141H80.4389C78.6679 123.141 77.2324 121.706 77.2324 119.935V100.825C77.2324 99.0537 78.6679 97.6182 80.4389 97.6182H202.544C207.068 105.165 207.893 122.35 206.988 136.771Z" fill="#E1E7F1"/>
<path d="M112.76 92.208H107.463V125.474H112.76V92.208Z" fill="#5786CC"/>
<path d="M145.655 92.208H140.358V125.474H145.655V92.208Z" fill="#5786CC"/>
<path d="M178.532 92.208H173.235V125.474H178.532V92.208Z" fill="#5786CC"/>
<path d="M177.937 173C185.576 173 191.768 166.808 191.768 159.17C191.768 151.531 185.576 145.339 177.937 145.339C170.299 145.339 164.107 151.531 164.107 159.17C164.107 166.808 170.299 173 177.937 173Z" fill="#2A466F"/>
<path d="M177.934 163.776C180.48 163.776 182.544 161.712 182.544 159.166C182.544 156.62 180.48 154.556 177.934 154.556C175.388 154.556 173.324 156.62 173.324 159.166C173.324 161.712 175.388 163.776 177.934 163.776Z" fill="#3B5883"/>
<path d="M78.7756 173C86.4141 173 92.6063 166.808 92.6063 159.17C92.6063 151.531 86.4141 145.339 78.7756 145.339C71.1371 145.339 64.9448 151.531 64.9448 159.17C64.9448 166.808 71.1371 173 78.7756 173Z" fill="#2A466F"/>
<path d="M78.7721 163.776C81.3183 163.776 83.3824 161.712 83.3824 159.166C83.3824 156.62 81.3183 154.556 78.7721 154.556C76.2259 154.556 74.1619 156.62 74.1619 159.166C74.1619 161.712 76.2259 163.776 78.7721 163.776Z" fill="#3B5883"/>
</svg>
