<svg width="256" height="256" viewBox="0 0 256 256" fill="none" xmlns="http://www.w3.org/2000/svg">
<path d="M203.484 150.148H209.947C213.116 150.148 215.687 147.578 215.687 144.408V130.462C214.126 119.839 192.031 113.462 171.94 113.589C140.5 90.1132 102.564 90.4001 59.1344 110.777L45.1831 113.101C42.4155 113.562 40.3856 115.957 40.3856 118.763V138.953C40.3856 140.329 40.8794 141.658 41.7772 142.7L46.481 148.157C47.5721 149.422 49.1589 150.15 50.8296 150.15H57.8599H203.484V150.148Z" fill="#5786CC"/>
<path d="M96.3608 108.764L97.6412 111.274C98.3653 112.693 99.8233 113.587 101.416 113.587H171.94C154.674 97.8947 125.015 92.7302 98.6191 102.866C96.2691 103.771 95.219 106.522 96.3608 108.764Z" fill="#E1E7F1"/>
<path d="M113.511 124.85H109.565C108.507 124.85 107.65 123.993 107.65 122.935C107.65 121.877 108.507 121.021 109.565 121.021H113.511C114.569 121.021 115.426 121.877 115.426 122.935C115.426 123.993 114.569 124.85 113.511 124.85Z" fill="#E1E7F1"/>
<path d="M215.464 129.431C211.731 129.431 208.202 129.431 205.645 129.431C202.286 126.101 200.211 121.919 198.749 117.326C207.899 119.953 214.508 123.582 215.464 129.431Z" fill="#E1E7F1"/>
<path d="M184.544 160C193.161 160 200.147 153.015 200.147 144.397C200.147 135.78 193.161 128.795 184.544 128.795C175.927 128.795 168.942 135.78 168.942 144.397C168.942 153.015 175.927 160 184.544 160Z" fill="#2A466F"/>
<path d="M184.546 149.582C187.419 149.582 189.748 147.253 189.748 144.38C189.748 141.508 187.419 139.179 184.546 139.179C181.674 139.179 179.345 141.508 179.345 144.38C179.345 147.253 181.674 149.582 184.546 149.582Z" fill="#3B5883"/>
<path d="M72.6682 160C81.2853 160 88.2708 153.015 88.2708 144.397C88.2708 135.78 81.2853 128.795 72.6682 128.795C64.0512 128.795 57.0657 135.78 57.0657 144.397C57.0657 153.015 64.0512 160 72.6682 160Z" fill="#2A466F"/>
<path d="M72.6701 149.582C75.5428 149.582 77.8716 147.253 77.8716 144.38C77.8716 141.508 75.5428 139.179 72.6701 139.179C69.7974 139.179 67.4686 141.508 67.4686 144.38C67.4686 147.253 69.7974 149.582 72.6701 149.582Z" fill="#3B5883"/>
<path d="M40.3856 120.523H46.1121C47.9 120.523 49.3502 121.974 49.3502 123.761C49.3502 125.549 47.9 126.999 46.1121 126.999H40.3856C39.9074 124.841 39.9074 122.682 40.3856 120.523Z" fill="#E1E7F1"/>
</svg>
