<svg width="256" height="256" viewBox="0 0 256 256" fill="none" xmlns="http://www.w3.org/2000/svg">
<path d="M195.952 78.7109H71.0064C69.5732 78.7109 68.4119 79.8723 68.4119 81.3055C68.4119 82.7387 69.5732 83.9001 71.0064 83.9001H128.825V93.9636C128.825 95.3968 129.988 96.5581 131.42 96.5581C132.853 96.5581 134.014 95.3968 134.014 93.9636V83.9001H195.951C197.384 83.9001 198.545 82.7387 198.545 81.3055C198.545 79.8723 197.386 78.7109 195.952 78.7109Z" fill="#2A466F"/>
<path d="M202.686 171.811H185.829V157.198C185.829 155.765 184.666 154.604 183.234 154.604C181.801 154.604 180.639 155.767 180.639 157.198V171.811H149.542V157.198C149.542 155.765 148.379 154.604 146.948 154.604C145.516 154.604 144.353 155.767 144.353 157.198V171.811H126.559C125.126 171.811 123.965 172.974 123.965 174.405C123.965 175.838 125.126 177 126.559 177H202.686C204.12 177 205.281 175.837 205.281 174.405C205.281 172.974 204.118 171.811 202.686 171.811Z" fill="#2A466F"/>
<path d="M195.952 162.389H138.603C132.06 162.389 126.755 157.085 126.755 150.542C126.755 143.255 121.697 136.946 114.586 135.359L72.1041 125.89C71.6223 125.783 71.132 125.728 70.6382 125.728H57.1663C53.4465 125.728 50.4321 122.713 50.4321 118.995V97.2391C50.4321 93.521 53.4465 90.5049 57.1663 90.5049H60.561C63.2657 90.5049 65.7071 92.1222 66.7618 94.6135L69.642 101.418C70.6967 103.91 73.1381 105.527 75.8428 105.527H146.191C160.426 105.527 173.938 111.81 183.11 122.696L196.417 138.489C200.464 143.293 202.685 149.372 202.685 155.653C202.686 159.375 199.67 162.389 195.952 162.389Z" fill="#5786CC"/>
<path d="M143.309 110.479H119.536C118.967 110.479 118.505 110.018 118.505 109.448V104.622C118.505 97.5281 124.257 91.7764 131.351 91.7764H131.494C138.588 91.7764 144.339 97.5281 144.339 104.622V109.448C144.339 110.018 143.878 110.479 143.309 110.479Z" fill="#5786CC"/>
<path d="M160.151 143.694H199.839C197.081 121.988 182.51 109.203 154.828 106.315C150.557 116.501 148.138 126.157 149.577 134.704C150.449 139.883 154.902 143.694 160.151 143.694Z" fill="#E1E7F1"/>
</svg>
