<svg width="256" height="256" viewBox="0 0 256 256" fill="none" xmlns="http://www.w3.org/2000/svg">
<path d="M150.526 82.8139C150.007 82.8139 149.485 82.6677 149.021 82.3609C143.549 78.7537 136.607 78.529 127.801 81.6705C126.375 82.1819 124.81 81.4367 124.3 80.0103C123.79 78.5838 124.534 77.0167 125.96 76.5089C136.497 72.7538 145.027 73.1684 152.035 77.7856C153.297 78.6185 153.647 80.3171 152.816 81.581C152.289 82.381 151.416 82.8139 150.526 82.8139Z" fill="#ADC4E5"/>
<path d="M163.552 91.6722L169.527 89.8987C170.334 89.6594 170.887 88.9179 170.887 88.0759V77.6688C170.887 76.593 169.985 75.7291 168.909 75.7565C163.103 75.9063 159.441 78.7354 158.1 84.465C158.875 87.6339 160.561 90.1343 163.552 91.6722Z" fill="#ADC4E5"/>
<path d="M82.6715 98.0693H99.7215C108.678 98.0693 115.94 105.331 115.94 114.288V114.927H66.4526V114.288C66.4508 105.329 73.7128 98.0693 82.6715 98.0693Z" fill="#ADC4E5"/>
<path d="M150.29 77.2645L148.627 78.5777C147.553 79.4252 147.313 80.9485 148.048 82.1046C193.639 153.888 94.9106 152.377 116.971 115.165C118.024 113.386 116.781 111.132 114.713 111.132H67.4481C67.2307 111.132 67.0079 111.156 66.796 111.204C53.2547 114.287 48.4347 129.401 45.706 145.04C45.4211 146.67 46.6704 148.164 48.3233 148.164H54.2867C54.3944 148.164 54.5022 148.156 54.6081 148.144L95.254 143.174C95.4585 143.148 95.6649 143.148 95.8695 143.17L102.615 143.919C103.599 144.029 104.441 144.677 104.799 145.601L108.341 154.774C108.735 155.796 109.719 156.472 110.817 156.472H163.527C164.436 156.472 165.284 156.007 165.77 155.238L175.91 139.216C176.089 138.933 176.213 138.621 176.275 138.292L179.234 122.703C179.315 122.283 179.295 121.846 179.174 121.435C174.356 104.968 165.656 89.5529 153.828 77.4672C152.882 76.5029 151.35 76.428 150.29 77.2645Z" fill="#5786CC"/>
<path d="M204.58 138.595L208.657 134.666C210.658 132.735 210.479 129.431 208.227 127.802C202.406 123.59 195.25 121.106 187.515 121.106C169.735 121.106 155.019 134.228 152.522 151.316C152.126 154.034 154.248 156.474 156.995 156.474H167.731C169.874 156.474 171.737 154.96 172.137 152.856C174.412 140.918 185.062 137.713 200.803 139.809C202.184 139.992 203.577 139.561 204.58 138.595Z" fill="#ADC4E5"/>
<path d="M86.8961 133.943C74.4543 133.943 64.3668 144.029 64.3668 156.473C64.3668 168.914 74.4525 179 86.8961 179C99.3397 179 109.425 168.914 109.425 156.473C109.424 144.031 99.3379 133.943 86.8961 133.943ZM86.8961 165.567C81.8734 165.567 77.8022 161.495 77.8022 156.473C77.8022 151.45 81.8734 147.379 86.8961 147.379C91.9189 147.379 95.99 151.45 95.99 156.473C95.99 161.495 91.9189 165.567 86.8961 165.567Z" fill="#2A466F"/>
<path d="M111.842 152.899C113.561 152.899 114.941 151.414 114.761 149.706C113.316 135.991 102.428 125.838 87.6267 125.838C73.1667 125.838 59.556 135.531 53.7807 148.767C52.9314 150.714 54.3232 152.9 56.4474 152.9H62.471L111.842 152.899Z" fill="#ADC4E5"/>
<path d="M187.515 133.943C175.074 133.943 164.986 144.029 164.986 156.473C164.986 168.914 175.072 179 187.515 179C199.957 179 210.045 168.914 210.045 156.473C210.045 144.031 199.959 133.943 187.515 133.943ZM187.515 165.567C182.493 165.567 178.421 161.495 178.421 156.473C178.421 151.45 182.493 147.379 187.515 147.379C192.538 147.379 196.609 151.45 196.609 156.473C196.611 161.495 192.538 165.567 187.515 165.567Z" fill="#2A466F"/>
</svg>
