<svg width="256" height="256" viewBox="0 0 256 256" fill="none" xmlns="http://www.w3.org/2000/svg">
<path d="M82.0283 191.997C101.537 191.997 117.352 176.182 117.352 156.673C117.352 137.164 101.537 121.349 82.0283 121.349C62.5193 121.349 46.7042 137.164 46.7042 156.673C46.7042 176.182 62.5193 191.997 82.0283 191.997Z" fill="#E1E7F1"/>
<path d="M188.428 192C202.279 192 213.508 180.771 213.508 166.919C213.508 153.068 202.279 141.839 188.428 141.839C174.576 141.839 163.347 153.068 163.347 166.919C163.347 180.771 174.576 192 188.428 192Z" fill="#E1E7F1"/>
<path d="M145.284 74.1748H136.026L143.872 108.872L153.6 110.378L145.284 74.1748Z" fill="#E1E7F1"/>
<path d="M75.6703 106.049L82.4969 74.166H73.2335L65.9365 108.252C69.0582 107.213 72.3115 106.466 75.6703 106.049Z" fill="#E1E7F1"/>
<path d="M151.105 74.1681H66.3995C65.8387 74.1681 65.3853 73.7146 65.3853 73.1539V69.6634C65.3853 66.4176 68.0158 63.7852 71.2635 63.7852H141.853C144.021 63.7852 146.063 64.8012 147.37 66.5305L151.914 72.5404C152.419 73.2103 151.943 74.1681 151.105 74.1681Z" fill="#5786CC"/>
<path d="M190.546 63.7266H185.758H184.09C181.381 63.7266 179.185 65.9224 179.185 68.632V70.2991V79.8748H185.758V72.9579C185.758 71.4902 186.949 70.2991 188.416 70.2991H190.546V63.7266Z" fill="#5786CC"/>
<path d="M187.681 115.728V81.3372C187.681 80.5318 187.028 79.8789 186.222 79.8789H177.994C177.189 79.8789 176.536 80.5318 176.536 81.3372V113.982L187.681 115.728Z" fill="#E1E7F1"/>
<path d="M82.0284 172.371C90.6984 172.371 97.7269 165.342 97.7269 156.672C97.7269 148.002 90.6984 140.974 82.0284 140.974C73.3583 140.974 66.3298 148.002 66.3298 156.672C66.3298 165.342 73.3583 172.371 82.0284 172.371Z" fill="#5786CC"/>
<path d="M188.435 175.738C193.312 175.738 197.266 171.785 197.266 166.908C197.266 162.031 193.312 158.077 188.435 158.077C183.558 158.077 179.605 162.031 179.605 166.908C179.605 171.785 183.558 175.738 188.435 175.738Z" fill="#5786CC"/>
<path d="M164.518 159.335C167.73 149.187 177.217 141.83 188.426 141.83C194.534 141.83 200.128 144.018 204.478 147.648V128.716C204.478 122.754 200.137 117.681 194.248 116.757L143.88 108.863V123.875C143.88 130.453 138.547 135.788 131.967 135.788H110.471C114.775 141.642 117.349 148.844 117.349 156.668C117.349 157.57 117.281 158.454 117.213 159.336L164.518 159.335Z" fill="#5786CC"/>
<path d="M103.477 110.38L105.686 74.166H96.3834L94.1499 107.119C97.392 107.913 100.514 109.001 103.477 110.38Z" fill="#E1E7F1"/>
<path d="M128.55 135.787C120.57 118.026 102.758 105.645 82.0264 105.645C67.6864 105.645 54.7332 111.562 45.4642 121.087C43.8912 122.704 43.7275 125.231 45.0409 127.063L52.4451 137.393C58.7486 127.737 69.632 121.343 82.0245 121.343C93.7171 121.343 104.07 127.033 110.498 135.787H128.55Z" fill="#ADC4E5"/>
<path d="M155.499 136.67C154.458 136.67 153.617 135.829 153.617 134.788V123.954C153.617 122.915 154.458 122.072 155.499 122.072C156.54 122.072 157.381 122.915 157.381 123.954V134.788C157.381 135.827 156.538 136.67 155.499 136.67Z" fill="#ADC4E5"/>
<path d="M167.272 136.67C166.232 136.67 165.391 135.829 165.391 134.788V123.954C165.391 122.915 166.232 122.072 167.272 122.072C168.313 122.072 169.154 122.915 169.154 123.954V134.788C169.154 135.827 168.313 136.67 167.272 136.67Z" fill="#ADC4E5"/>
<path d="M108.228 180.296L102.375 174.442C101.639 173.707 100.45 173.707 99.7139 174.442C98.9782 175.178 98.9782 176.367 99.7139 177.103L105.564 182.953C106.499 182.114 107.387 181.228 108.228 180.296Z" fill="#ADC4E5"/>
<path d="M82.0264 181.768C80.9878 181.768 80.1448 182.609 80.1448 183.649V191.895C80.7714 191.928 81.3904 191.989 82.0264 191.989C82.6624 191.989 83.2815 191.927 83.9081 191.895V183.649C83.9081 182.611 83.0651 181.768 82.0264 181.768Z" fill="#ADC4E5"/>
<path d="M61.6784 174.442L55.8246 180.296C56.6657 181.229 57.5538 182.114 58.489 182.953L64.339 177.103C65.0747 176.367 65.0747 175.178 64.339 174.442C63.6033 173.707 62.4122 173.707 61.6784 174.442Z" fill="#ADC4E5"/>
<path d="M46.8021 158.634H55.1303C56.1689 158.634 57.0119 157.793 57.0119 156.753C57.0119 155.712 56.1689 154.871 55.1303 154.871H46.7927C46.7626 155.469 46.7024 156.06 46.7024 156.666C46.7024 157.33 46.7664 157.98 46.8021 158.634Z" fill="#ADC4E5"/>
<path d="M55.7474 133.12C55.7606 133.135 55.7663 133.154 55.7794 133.169L61.6765 139.068C62.0434 139.435 62.5251 139.619 63.0068 139.619C63.4885 139.619 63.9702 139.435 64.3371 139.068C65.0729 138.332 65.0729 137.143 64.3371 136.407L58.4401 130.508C58.425 130.493 58.4024 130.488 58.3855 130.473C57.4616 131.31 56.581 132.192 55.7474 133.12Z" fill="#ADC4E5"/>
<path d="M80.1599 121.439C80.158 121.467 80.1429 121.491 80.1429 121.52V129.861C80.1429 130.902 80.9859 131.743 82.0246 131.743C83.0633 131.743 83.9062 130.902 83.9062 129.861V121.52C83.9062 121.491 83.8912 121.467 83.8893 121.439C83.2684 121.407 82.6531 121.345 82.0246 121.345C81.3961 121.345 80.7827 121.405 80.1599 121.439Z" fill="#ADC4E5"/>
<path d="M108.304 133.12C107.47 132.191 106.591 131.308 105.664 130.473C105.647 130.488 105.626 130.491 105.609 130.508L99.7121 136.407C98.9763 137.143 98.9763 138.332 99.7121 139.068C100.079 139.435 100.561 139.619 101.042 139.619C101.524 139.619 102.006 139.435 102.373 139.068L108.27 133.169C108.287 133.156 108.29 133.135 108.304 133.12Z" fill="#ADC4E5"/>
<path d="M117.258 154.871H108.921C107.882 154.871 107.039 155.712 107.039 156.753C107.039 157.793 107.882 158.634 108.921 158.634H117.249C117.285 157.98 117.349 157.33 117.349 156.666C117.349 156.06 117.288 155.469 117.258 154.871Z" fill="#ADC4E5"/>
<path d="M188.428 184.358C187.387 184.358 186.546 185.199 186.546 186.24V191.894C187.169 191.941 187.792 191.988 188.428 191.988C189.064 191.988 189.686 191.94 190.309 191.894V186.24C190.309 185.201 189.466 184.358 188.428 184.358Z" fill="#ADC4E5"/>
<path d="M207.429 183.25L203.426 179.248C202.691 178.512 201.501 178.512 200.766 179.248C200.03 179.984 200.03 181.173 200.766 181.909L204.768 185.911C205.72 185.091 206.608 184.202 207.429 183.25Z" fill="#ADC4E5"/>
<path d="M205.874 166.91C205.874 167.951 206.715 168.792 207.756 168.792H213.412C213.459 168.169 213.506 167.546 213.506 166.91C213.506 166.274 213.457 165.651 213.412 165.028H207.756C206.715 165.028 205.874 165.869 205.874 166.91Z" fill="#ADC4E5"/>
<path d="M204.766 147.909L200.764 151.911C200.028 152.647 200.028 153.836 200.764 154.572C201.131 154.939 201.612 155.123 202.094 155.123C202.576 155.123 203.057 154.939 203.424 154.572L207.427 150.57C206.608 149.618 205.718 148.73 204.766 147.909Z" fill="#ADC4E5"/>
<path d="M188.428 141.832C187.792 141.832 187.169 141.881 186.546 141.926V147.58C186.546 148.621 187.387 149.462 188.428 149.462C189.468 149.462 190.309 148.621 190.309 147.58V141.926C189.685 141.879 189.062 141.832 188.428 141.832Z" fill="#ADC4E5"/>
<path d="M169.427 150.57L173.429 154.572C173.796 154.939 174.278 155.123 174.759 155.123C175.241 155.123 175.723 154.939 176.09 154.572C176.825 153.836 176.825 152.647 176.09 151.911L172.088 147.909C171.135 148.73 170.245 149.618 169.427 150.57Z" fill="#ADC4E5"/>
<path d="M169.098 165.028H163.443C163.396 165.651 163.349 166.276 163.349 166.91C163.349 167.546 163.398 168.169 163.443 168.792H169.098C170.138 168.792 170.979 167.951 170.979 166.91C170.979 165.869 170.138 165.028 169.098 165.028Z" fill="#ADC4E5"/>
<path d="M173.429 179.248L169.427 183.25C170.247 184.202 171.135 185.091 172.088 185.911L176.09 181.909C176.825 181.173 176.825 179.984 176.09 179.248C175.354 178.512 174.163 178.512 173.429 179.248Z" fill="#ADC4E5"/>
</svg>
