<svg width="256" height="256" viewBox="0 0 256 256" fill="none" xmlns="http://www.w3.org/2000/svg">
<path d="M47.9216 72.7543H109.705C114.337 72.7543 118.128 76.5448 118.128 81.1771C118.128 85.8094 114.337 89.5999 109.705 89.5999H108.96V110.703H143.332V76.2668C140.189 74.9821 137.955 71.8965 137.955 68.3066C137.955 63.575 141.827 59.7031 146.559 59.7031H171.549C176.281 59.7031 180.153 63.575 180.153 68.3066C180.153 71.9601 177.836 75.0774 174.607 76.3204V110.705H183.485C185.875 110.705 187.831 112.66 187.831 115.051V147.189L216.215 183.674H183.485H104.586H53.3561H53.3283C50.9377 183.674 48.9819 181.719 48.9819 179.328V179.3V115.051V89.6019H47.9236C43.2912 89.6019 39.5008 85.8114 39.5008 81.1791C39.5008 76.5467 43.2892 72.7543 47.9216 72.7543ZM59.6186 126.335C59.6186 128.497 61.3877 130.266 63.55 130.266H94.8109C96.9732 130.266 98.7424 128.497 98.7424 126.335V95.0741C98.7424 92.9118 96.9732 91.1427 94.8109 91.1427H63.55C61.3877 91.1427 59.6186 92.9118 59.6186 95.0741V126.335Z" fill="#ADC4E5"/>
<path d="M143.332 110.705V76.2668C140.189 74.9821 137.955 71.8965 137.955 68.3066C137.955 63.575 141.827 59.7031 146.559 59.7031H171.549C176.281 59.7031 180.153 63.575 180.153 68.3066C180.153 71.9601 177.836 75.0774 174.607 76.3204V110.705H183.485C185.875 110.705 187.831 112.66 187.831 115.051V147.189L216.215 183.674H183.485H104.586C131.49 167.764 144.645 143.584 143.332 110.705Z" fill="#5786CC"/>
<path d="M53.3264 184.668H216.215C216.594 184.668 216.94 184.453 217.106 184.112C217.273 183.77 217.231 183.365 216.997 183.067L188.822 146.851V115.054C188.822 112.109 186.427 109.714 183.483 109.714H175.598V76.9762C178.942 75.4037 181.144 72.0024 181.144 68.3072C181.144 63.0157 176.839 58.7109 171.547 58.7109H146.557C141.265 58.7109 136.961 63.0157 136.961 68.3072C136.961 71.9885 139.05 75.2964 142.338 76.9107V109.714H109.951V90.5913C115.03 90.4603 119.118 86.2886 119.118 81.1797C119.118 75.9874 114.895 71.7621 109.703 71.7621H47.9216C42.7294 71.7621 38.506 75.9854 38.506 81.1797C38.506 86.372 42.7294 90.5953 47.9216 90.5953H47.9852V179.303C47.9872 182.273 50.3818 184.668 53.3264 184.668ZM214.186 182.682H53.3542C51.4778 182.682 49.9727 181.177 49.9727 179.329V89.6005C49.9727 89.0525 49.528 88.6077 48.9799 88.6077H47.9236C43.8274 88.6077 40.4936 85.2739 40.4936 81.1777C40.4936 77.0815 43.8274 73.7457 47.9236 73.7457H109.705C113.801 73.7457 117.135 77.0795 117.135 81.1777C117.135 85.2739 113.801 88.6077 109.705 88.6077H108.96C108.412 88.6077 107.967 89.0525 107.967 89.6005V110.705C107.967 111.253 108.412 111.698 108.96 111.698H143.332C143.88 111.698 144.325 111.253 144.325 110.705V76.2694C144.325 75.8663 144.081 75.5029 143.708 75.35C140.817 74.1686 138.948 71.4047 138.948 68.3092C138.948 64.1117 142.361 60.6985 146.559 60.6985H171.549C175.747 60.6985 179.16 64.1117 179.16 68.3092C179.16 71.4186 177.186 74.2659 174.25 75.3957C173.867 75.5426 173.614 75.912 173.614 76.323V110.707C173.614 111.255 174.059 111.7 174.607 111.7H183.485C185.333 111.7 186.838 113.205 186.838 115.054V147.192C186.838 147.412 186.912 147.629 187.047 147.802L214.186 182.682ZM63.5501 131.26H94.811C97.5272 131.26 99.7352 129.052 99.7352 126.338V95.0747C99.7352 92.3605 97.5272 90.1525 94.811 90.1525H63.5501C60.8358 90.1525 58.6279 92.3605 58.6279 95.0747V126.336C58.6259 129.052 60.8358 131.26 63.5501 131.26ZM94.811 92.1381C96.4312 92.1381 97.7496 93.4565 97.7496 95.0747V126.336C97.7496 127.954 96.4312 129.272 94.811 129.272H63.5501C61.9318 129.272 60.6134 127.954 60.6134 126.336V95.0747C60.6134 93.4565 61.9318 92.1381 63.5501 92.1381H94.811Z" fill="#5786CC"/>
<path d="M81.186 195.424C67.2317 195.424 55.9195 184.112 55.9195 170.158C55.9195 156.204 67.2317 144.892 81.186 144.892C95.1402 144.892 106.452 156.204 106.452 170.158C106.452 184.112 95.1402 195.424 81.186 195.424Z" fill="#ADC4E5"/>
<path d="M81.178 144.9C95.1326 144.9 106.444 156.212 106.444 170.167C106.444 184.121 95.1326 195.433 81.178 195.433C98.0217 178.59 98.0217 161.744 81.178 144.9Z" fill="#ADC4E5"/>
<path d="M81.178 196.426C95.6588 196.426 107.439 184.645 107.439 170.164C107.439 155.686 95.6588 143.905 81.178 143.905C66.6972 143.905 54.9168 155.686 54.9168 170.164C54.9168 184.647 66.6972 196.426 81.178 196.426ZM81.178 145.893C94.5628 145.893 105.454 156.782 105.454 170.166C105.454 183.551 94.5647 194.442 81.178 194.442C67.7913 194.442 56.9024 183.553 56.9024 170.166C56.9024 156.782 67.7933 145.893 81.178 145.893Z" fill="#5786CC"/>
<path d="M182.75 196.017C174.335 196.017 167.513 189.195 167.513 180.779C167.513 172.364 174.335 165.542 182.75 165.542C191.165 165.542 197.987 172.364 197.987 180.779C197.987 189.195 191.165 196.017 182.75 196.017Z" fill="#ADC4E5"/>
<path d="M182.756 165.534C191.171 165.534 197.993 172.357 197.993 180.771C197.993 189.186 191.171 196.009 182.756 196.009C192.914 185.851 192.914 175.692 182.756 165.534Z" fill="#ADC4E5"/>
<path d="M182.756 197C191.705 197 198.986 189.721 198.986 180.772C198.986 171.823 191.705 164.542 182.756 164.542C173.807 164.542 166.526 171.823 166.526 180.772C166.526 189.721 173.807 197 182.756 197ZM182.756 166.53C190.611 166.53 197.001 172.919 197.001 180.774C197.001 188.627 190.611 195.017 182.756 195.017C174.901 195.017 168.512 188.627 168.512 180.774C168.512 172.917 174.901 166.53 182.756 166.53Z" fill="#5786CC"/>
<path d="M148.221 196.017C139.806 196.017 132.984 189.195 132.984 180.779C132.984 172.364 139.806 165.542 148.221 165.542C156.636 165.542 163.458 172.364 163.458 180.779C163.458 189.195 156.636 196.017 148.221 196.017Z" fill="#ADC4E5"/>
<path d="M148.219 165.534C156.634 165.534 163.456 172.357 163.456 180.771C163.456 189.186 156.634 196.009 148.219 196.009C158.377 185.851 158.377 175.692 148.219 165.534Z" fill="#ADC4E5"/>
<path d="M148.219 197C157.168 197 164.449 189.721 164.449 180.772C164.449 171.823 157.168 164.542 148.219 164.542C139.27 164.542 131.991 171.823 131.991 180.772C131.991 189.721 139.27 197 148.219 197ZM148.219 166.53C156.074 166.53 162.463 172.919 162.463 180.774C162.463 188.627 156.074 195.017 148.219 195.017C140.364 195.017 133.976 188.627 133.976 180.774C133.976 172.917 140.364 166.53 148.219 166.53Z" fill="#5786CC"/>
<path d="M77.4173 184.834H184.902C186.928 184.834 188.586 183.176 188.586 181.151V180.98C188.586 178.955 186.928 177.297 184.902 177.297H77.4173C75.392 177.297 73.734 178.955 73.734 180.98V181.151C73.734 183.176 75.392 184.834 77.4173 184.834Z" fill="#ADC4E5"/>
<path d="M73.734 181.065C73.734 183.138 75.4297 184.834 77.5027 184.834H184.817C186.89 184.834 188.586 183.138 188.586 181.065" fill="#ADC4E5"/>
<path d="M77.4173 185.827H184.902C187.482 185.827 189.578 183.729 189.578 181.151C189.578 178.401 187.48 176.305 184.902 176.305H77.4173C74.838 176.305 72.7413 178.403 72.7413 180.981C72.7413 183.731 74.838 185.827 77.4173 185.827ZM184.902 178.288C186.388 178.288 187.593 179.495 187.593 180.979C187.593 182.633 186.386 183.84 184.902 183.84H77.4173C75.9341 183.84 74.7268 182.633 74.7268 181.149C74.7268 179.495 75.9341 178.288 77.4173 178.288H184.902Z" fill="#5786CC"/>
</svg>
