<svg width="256" height="256" viewBox="0 0 256 256" fill="none" xmlns="http://www.w3.org/2000/svg">
<path d="M182.924 174C190.486 174 196.615 167.87 196.615 160.309C196.615 152.748 190.486 146.618 182.924 146.618C175.363 146.618 169.233 152.748 169.233 160.309C169.233 167.87 175.363 174 182.924 174Z" fill="#2A466F"/>
<path d="M85.856 174C93.4173 174 99.547 167.87 99.547 160.309C99.547 152.748 93.4173 146.618 85.856 146.618C78.2947 146.618 72.165 152.748 72.165 160.309C72.165 167.87 78.2947 174 85.856 174Z" fill="#2A466F"/>
<path d="M207.09 126.735L180.176 96.4592C179.356 95.5363 178.18 95.0098 176.947 95.0098H149.588C145.057 107.001 144.883 118.784 149.588 130.333C120.987 123.479 84.8083 126.21 47.5321 130.333V156.232C47.5321 158.822 49.6313 160.919 52.2195 160.919H62.3405H67.633C67.6259 160.714 67.6027 160.512 67.6027 160.305C67.6027 150.223 75.7762 142.05 85.8579 142.05C95.9396 142.05 104.113 150.223 104.113 160.305C104.113 160.512 104.088 160.714 104.083 160.919H149.59H164.694C164.687 160.714 164.664 160.512 164.664 160.305C164.664 150.223 172.837 142.05 182.919 142.05C193.001 142.05 201.174 150.223 201.174 160.305C201.174 160.512 201.149 160.714 201.144 160.919H203.863C206.249 160.919 208.184 158.984 208.184 156.598V129.607C208.182 128.548 207.793 127.527 207.09 126.735Z" fill="#ADC4E5"/>
<path d="M208.182 127.962H170.194C168.059 127.962 166.329 126.233 166.329 124.098V109.727C166.329 107.592 168.059 105.862 170.194 105.862H188.536C197.61 109.887 203.62 117.966 208.182 127.962Z" fill="#E1E7F1"/>
<path d="M85.8506 164.868C88.3714 164.868 90.4149 162.824 90.4149 160.304C90.4149 157.783 88.3714 155.739 85.8506 155.739C83.3299 155.739 81.2864 157.783 81.2864 160.304C81.2864 162.824 83.3299 164.868 85.8506 164.868Z" fill="#3B5883"/>
<path d="M182.919 164.868C185.44 164.868 187.483 162.824 187.483 160.304C187.483 157.783 185.44 155.739 182.919 155.739C180.398 155.739 178.355 157.783 178.355 160.304C178.355 162.824 180.398 164.868 182.919 164.868Z" fill="#3B5883"/>
<path d="M149.588 138.601V127.085V110.05V91.4434C149.588 86.0724 145.234 81.7188 139.863 81.7188H57.2568C51.8857 81.7205 47.5321 86.0742 47.5321 91.4434V138.601H149.588Z" fill="#5786CC"/>
</svg>
